<?xml version="1.0" ?><svg contentScriptType="text/ecmascript" contentStyleType="text/css" enable-background="new 0 0 2048 2048" height="2048px" id="Layer_1" preserveAspectRatio="xMidYMid meet" version="1.1" viewBox="0.0 0 1152.0 2048" width="1152.0px" xml:space="preserve" xmlns="http://www.w3.org/2000/svg" xmlns:xlink="http://www.w3.org/1999/xlink" zoomAndPan="magnify"><path d="M480,992V544c0-9.333-3-17-9-23s-13.667-9-23-9s-17,3-23,9s-9,13.667-9,23v448c0,9.333,3,17,9,23s13.667,9,23,9s17-3,23-9  S480,1001.333,480,992z M1152,1344c0,17.333-6.333,32.333-19,45s-27.667,19-45,19H659l-51,483c-1.333,8-4.833,14.833-10.5,20.5  S585,1920,577,1920h-1c-18,0-28.667-9-32-27l-76-485H64c-17.333,0-32.333-6.333-45-19s-19-27.667-19-45  c0-82,26.167-155.833,78.5-221.5C130.833,1056.833,190,1024,256,1024V512c-34.667,0-64.667-12.667-90-38s-38-55.333-38-90  s12.667-64.667,38-90s55.333-38,90-38h640c34.667,0,64.667,12.667,90,38s38,55.333,38,90s-12.667,64.667-38,90s-55.333,38-90,38v512  c66,0,125.167,32.833,177.5,98.5C1125.833,1188.167,1152,1262,1152,1344z"/></svg>